<svg xmlns="http://www.w3.org/2000/svg" width="640" height="170" viewBox="0 0 640 170">
  <defs>
    <linearGradient id="shadowGradient" x1="0%" y1="0%" x2="100%" y2="0%">
      <stop offset="0%" stop-color="#ffe27a" />
      <stop offset="45%" stop-color="#f8c200" />
      <stop offset="100%" stop-color="#ec1c24" />
    </linearGradient>
    <filter id="softShadow" x="-10%" y="-20%" width="120%" height="140%" color-interpolation-filters="sRGB">
      <feDropShadow dx="0" dy="6" stdDeviation="10" flood-color="rgba(0,0,0,0.16)" />
    </filter>
  </defs>
  <rect x="12" y="16" width="616" height="138" rx="26" fill="#ffffff" filter="url(#softShadow)" />
  <g transform="translate(48,52)">
    <text x="0" y="0" font-family="'Noto Sans KR', 'Segoe UI', sans-serif" font-size="30" font-weight="500" fill="#2f2f2f">맛있는 치킨</text>
    <text x="-4" y="68" font-family="'Gmarket Sans', 'Noto Sans KR', sans-serif" font-size="86" font-weight="700" fill="#111111">60계</text>
    <rect x="168" y="-18" width="70" height="70" rx="12" fill="#ec1c24" />
    <text x="203" y="26" font-family="'Noto Sans KR', sans-serif" font-size="26" font-weight="600" fill="#ffffff" text-anchor="middle">전국</text>
    <path d="M320 16 h160" stroke="url(#shadowGradient)" stroke-width="10" stroke-linecap="round" />
    <text x="320" y="60" font-family="'Noto Sans KR', sans-serif" font-size="30" font-weight="600" fill="#2f2f2f">행복을 나누는 프랜차이즈</text>
  </g>
  <g transform="translate(422,24)">
    <path d="M80 18c0-9.9 8.1-18 18-18s18 8.1 18 18-8.1 18-18 18-18-8.1-18-18z" fill="#fcd7a4" />
    <path d="M74 124c4.8-30 16.4-46 24-54 10.4-10.8 32-10.4 42.8 0 7.6 7.8 18.8 24.4 22.4 54H74z" fill="#f04c4c" />
    <path d="M90 50c9.6 10.4 27 10.4 36.6 0" stroke="#2a2a2a" stroke-width="4" stroke-linecap="round" fill="none" />
    <path d="M83 22c3.8-9 12.4-15 22-15s18.2 6 22 15" stroke="#2a2a2a" stroke-width="6" stroke-linecap="round" fill="none" />
    <path d="M120 132c0 10.4-8.6 18.8-19.2 18.8S81.6 142.4 81.6 132z" fill="#f79393" />
    <g transform="translate(70,70)">
      <path d="M54 10c8.2 0 14.8 6.8 14.8 15.2s-6.6 15.2-14.8 15.2S39.2 33.6 39.2 25.2 45.8 10 54 10z" fill="#ffe2e5" />
      <path d="M54 28l24-22 24 22" fill="none" stroke="#ff6f91" stroke-width="6" stroke-linecap="round" stroke-linejoin="round" />
      <circle cx="27" cy="18" r="6" fill="#ff6f91" />
      <circle cx="109" cy="18" r="6" fill="#ff6f91" />
      <path d="M27 18l8 8" stroke="#ff6f91" stroke-width="5" stroke-linecap="round" />
      <path d="M109 18l-8 8" stroke="#ff6f91" stroke-width="5" stroke-linecap="round" />
    </g>
  </g>
</svg>
